<?xml version="1.0" standalone="no"?>
<!DOCTYPE svg PUBLIC "-//W3C//DTD SVG 20010904//EN"
 "http://www.w3.org/TR/2001/REC-SVG-20010904/DTD/svg10.dtd">
<svg version="1.0" xmlns="http://www.w3.org/2000/svg"
 width="850.000000pt" height="850.000000pt" viewBox="0 0 850.000000 850.000000"
 preserveAspectRatio="xMidYMid meet">
<metadata>
Created by potrace 1.15, written by Peter Selinger 2001-2017
</metadata>
<g transform="translate(0.000000,850.000000) scale(0.100000,-0.100000)"
fill="#000000" stroke="none">
<path d="M2250 6097 l0 -498 225 3 225 3 27 28 28 27 3 181 c2 100 1 191 -2
203 -3 13 -18 28 -33 35 l-28 13 28 -26 27 -25 0 -171 c0 -190 -9 -233 -55
-250 -15 -6 -118 -10 -231 -10 l-204 0 0 485 0 485 214 0 c283 0 260 20 264
-226 3 -177 2 -189 -17 -215 -16 -22 -18 -27 -5 -22 28 11 34 51 34 233 0 175
-1 180 -24 207 l-24 28 -226 5 -226 5 0 -498z"/>
<path d="M3008 6593 l-88 -4 0 -494 0 -495 90 0 90 0 0 500 c0 275 -1 499 -2
498 -2 -1 -42 -4 -90 -5z m82 -498 l0 -485 -80 0 -80 0 0 485 0 485 80 0 80 0
0 -485z"/>
<path d="M3280 6098 l0 -497 185 -3 184 -3 11 70 c6 39 14 78 16 88 5 15 -4
17 -95 17 l-101 0 0 413 0 412 -100 0 -100 0 0 -497z m192 75 l3 -408 96 -3
c85 -2 97 -5 93 -20 -2 -9 -8 -43 -14 -74 l-11 -58 -175 0 -174 0 0 485 0 485
90 0 90 0 2 -407z"/>
<path d="M3883 6592 l-93 -3 0 -494 0 -495 180 0 c178 0 180 0 184 23 14 64
26 129 26 137 0 6 -43 10 -100 10 l-100 0 -2 413 -3 412 -92 -3z m89 -419 l3
-408 98 -3 c87 -2 98 -5 93 -20 -3 -9 -8 -35 -11 -57 -13 -82 3 -75 -186 -75
l-169 0 0 485 0 485 85 0 85 0 2 -407z"/>
<path d="M4465 6590 c-93 -3 -177 -9 -185 -13 -40 -19 -45 -46 -48 -251 -4
-224 0 -257 30 -286 19 -17 36 -20 113 -20 57 0 95 -4 103 -12 13 -13 17 -192
6 -222 -5 -13 -26 -16 -121 -16 l-115 0 7 -37 c3 -21 11 -59 17 -85 l10 -48
154 0 c169 0 201 8 222 55 8 18 12 98 12 250 0 279 7 266 -137 263 l-98 -2 95
-3 c140 -5 132 11 128 -270 -4 -299 12 -277 -207 -281 -178 -4 -162 -10 -176
73 -3 22 -8 48 -11 58 -5 15 5 17 105 17 134 0 131 -3 131 139 0 129 -2 131
-120 131 -138 0 -134 -6 -138 236 -4 224 0 257 33 290 23 23 29 24 188 24
l164 0 12 -57 c20 -99 26 -93 -97 -93 -140 0 -142 -1 -142 -131 0 -71 4 -100
16 -115 15 -18 15 -18 5 3 -15 31 -14 206 1 221 8 8 52 12 130 12 118 0 118 0
113 23 -3 12 -11 51 -18 87 l-12 65 -170 -5z"/>
<path d="M6845 6204 c-11 -2 -45 -9 -75 -15 -123 -25 -273 -117 -365 -225
-116 -135 -187 -294 -236 -527 -16 -75 -40 -165 -54 -199 -76 -186 -212 -315
-495 -468 -126 -68 -140 -80 -140 -122 0 -31 7 -34 46 -16 25 12 29 10 55 -21
15 -19 33 -56 40 -84 12 -53 10 -57 -41 -87 -12 -7 -12 -11 -1 -24 7 -8 21
-18 32 -21 12 -4 353 137 971 401 524 223 971 415 993 426 89 45 139 119 139
208 -1 61 -27 144 -84 267 -118 252 -315 430 -543 489 -61 15 -206 27 -242 18z
m186 -219 c214 -61 353 -252 336 -462 -10 -130 -103 -243 -267 -326 -222 -111
-402 -112 -547 -1 -74 56 -143 201 -143 300 0 114 57 253 143 349 126 142 296
192 478 140z"/>
<path d="M1262 4185 c-1 -27 39 -556 87 -1175 49 -619 89 -1102 89 -1075 1 28
-39 556 -87 1175 -49 619 -89 1103 -89 1075z"/>
<path d="M5582 3778 c-19 -19 -14 -32 17 -50 28 -15 29 -18 20 -58 -19 -86
-54 -129 -89 -110 -11 6 -25 8 -30 5 -14 -9 -12 -58 3 -77 6 -9 67 -41 135
-72 242 -109 388 -219 483 -364 47 -71 73 -138 124 -321 84 -305 277 -537 523
-629 90 -34 275 -43 372 -18 289 74 510 316 606 666 31 109 31 174 1 230 -41
78 -69 92 -443 224 -1337 473 -1663 586 -1685 586 -14 0 -30 -5 -37 -12z
m1428 -644 c169 -39 342 -157 394 -268 48 -102 40 -246 -20 -357 -56 -101
-176 -193 -298 -225 -76 -20 -202 -18 -269 5 -208 72 -378 341 -339 537 41
203 183 323 382 324 47 0 114 -7 150 -16z"/>
<path d="M4055 2718 c-3 -8 -4 -86 -3 -173 l3 -160 80 0 80 0 0 170 0 170 -78
3 c-57 2 -79 -1 -82 -10z m155 -163 l0 -166 -72 3 -73 3 -3 163 -2 162 75 0
75 0 0 -165z"/>
<path d="M4105 2678 c-3 -8 -4 -68 -3 -134 l3 -119 30 0 30 0 0 130 0 130 -28
3 c-16 2 -29 -2 -32 -10z"/>
<path d="M4274 2717 c-2 -7 -3 -85 -2 -172 l3 -160 78 -3 c75 -3 77 -2 87 23
13 34 13 266 0 299 -9 25 -13 26 -85 26 -53 0 -77 -4 -81 -13z m160 -28 c8
-40 8 -247 0 -277 -6 -21 -11 -23 -78 -20 l-71 3 -3 150 c-1 82 0 155 2 162 4
9 27 13 74 13 l70 0 6 -31z"/>
<path d="M4325 2678 c-3 -8 -4 -68 -3 -134 l3 -119 30 0 30 0 0 130 0 130 -28
3 c-16 2 -29 -2 -32 -10z"/>
<path d="M4495 2708 c-3 -13 -4 -90 -3 -173 l3 -150 79 -3 c57 -2 82 1 87 10
10 15 12 298 3 322 -5 13 -22 16 -85 16 -73 0 -79 -2 -84 -22z m159 -4 c9 -24
7 -287 -3 -302 -5 -9 -28 -12 -77 -10 l-69 3 -3 150 c-1 82 0 155 2 162 8 20
142 18 150 -3z"/>
<path d="M3585 1634 c-720 -56 -1294 -102 -1275 -103 19 0 592 42 1273 94 682
52 1254 95 1272 95 33 0 33 0 43 -62 6 -42 10 -51 10 -28 1 19 -2 51 -6 70
l-7 35 -1310 -101z"/>
</g>
</svg>
